<svg width="20" height="20" viewBox="0 0 20 20" fill="none" xmlns="http://www.w3.org/2000/svg">
<path d="M16.6384 12.369L10.3096 1.42906C10.2789 1.37504 10.2345 1.33004 10.1809 1.2986C10.1273 1.26717 10.0663 1.2504 10.0041 1.25001C9.94189 1.24961 9.88069 1.26559 9.82666 1.29634C9.77263 1.32709 9.7277 1.37152 9.69637 1.42514L7.80093 4.70321C7.73886 4.81051 7.70618 4.93223 7.70618 5.05614C7.70618 5.18004 7.73886 5.30177 7.80093 5.40907L11.9278 12.5459C11.9899 12.6533 12.0793 12.7425 12.1869 12.8045C12.2946 12.8664 12.4167 12.899 12.541 12.8989H16.3318C16.3939 12.8987 16.4548 12.8822 16.5085 12.8512C16.5622 12.8201 16.6068 12.7756 16.6378 12.7219C16.6689 12.6683 16.6853 12.6075 16.6854 12.5455C16.6855 12.4836 16.6693 12.4227 16.6384 12.369Z" fill="url(#paint0_linear_1910_16430)"/>
<path d="M0.0488021 18.0866L6.37767 7.14666C6.40872 7.09307 6.45336 7.04858 6.50709 7.01764C6.56082 6.98671 6.62175 6.97042 6.68378 6.97042C6.7458 6.97042 6.80675 6.98671 6.86048 7.01764C6.91421 7.04858 6.95883 7.09307 6.98988 7.14666L8.8863 10.4218C8.94836 10.5293 8.98103 10.6512 8.98103 10.7752C8.98103 10.8993 8.94836 11.0211 8.8863 11.1286L4.75945 18.2655C4.69755 18.3729 4.60836 18.4621 4.50086 18.524C4.39336 18.586 4.27137 18.6186 4.14723 18.6184H0.355401C0.292937 18.6187 0.231508 18.6025 0.177356 18.5715C0.123204 18.5404 0.0782681 18.4955 0.0471161 18.4415C0.0159641 18.3875 -0.000293272 18.3262 4.00493e-06 18.2638C0.000301282 18.2015 0.0171362 18.1403 0.0488021 18.0866Z" fill="url(#paint1_linear_1910_16430)"/>
<path d="M6.98898 18.6161H19.6467C19.7088 18.616 19.7698 18.5996 19.8235 18.5686C19.8773 18.5376 19.9219 18.4929 19.9528 18.4392C19.9838 18.3855 20.0001 18.3246 20 18.2626C19.9999 18.2007 19.9835 18.1398 19.9523 18.0862L18.0589 14.8091C17.9967 14.7017 17.9073 14.6125 17.7997 14.5506C17.692 14.4886 17.5699 14.456 17.4457 14.4562H9.19198C9.06772 14.456 8.94562 14.4886 8.83797 14.5506C8.73032 14.6125 8.64092 14.7017 8.57879 14.8091L6.68337 18.0862C6.65224 18.1398 6.6358 18.2007 6.63571 18.2626C6.63562 18.3246 6.65187 18.3855 6.68285 18.4392C6.71382 18.4929 6.75844 18.5376 6.81218 18.5686C6.86592 18.5996 6.92689 18.616 6.98898 18.6161Z" fill="url(#paint2_linear_1910_16430)"/>
<defs>
<linearGradient id="paint0_linear_1910_16430" x1="0" y1="1.25" x2="21.8956" y2="19.7916" gradientUnits="userSpaceOnUse">
<stop offset="0.24238" stop-color="#36BEFF"/>
<stop offset="1" stop-color="#733FF1"/>
</linearGradient>
<linearGradient id="paint1_linear_1910_16430" x1="0" y1="1.25" x2="21.8956" y2="19.7916" gradientUnits="userSpaceOnUse">
<stop offset="0.24238" stop-color="#36BEFF"/>
<stop offset="1" stop-color="#733FF1"/>
</linearGradient>
<linearGradient id="paint2_linear_1910_16430" x1="0" y1="1.25" x2="21.8956" y2="19.7916" gradientUnits="userSpaceOnUse">
<stop offset="0.24238" stop-color="#36BEFF"/>
<stop offset="1" stop-color="#733FF1"/>
</linearGradient>
</defs>
</svg>
