<?xml version="1.0" standalone="no"?><!DOCTYPE svg PUBLIC "-//W3C//DTD SVG 1.1//EN" "http://www.w3.org/Graphics/SVG/1.1/DTD/svg11.dtd"><svg t="1678021212929" class="icon" viewBox="0 0 1024 1024" version="1.1" xmlns="http://www.w3.org/2000/svg" p-id="6399" xmlns:xlink="http://www.w3.org/1999/xlink" width="1024" height="1024"><path d="M0 0h808.421A215.579 215.579 0 0 1 1024 215.579V1024L0 0z" fill="#F95A29" p-id="6400"></path><path d="M609.55 242.041l-25.735 25.708 33.9 33.927 25.734-25.735-33.926-33.9z m-38.535 38.481l-28.376 28.403 33.927 33.9 28.402-28.376-33.953-33.927z m-41.5 41.526l-8.784 8.785-13.528-13.528 111.67-111.67c-11.83 2.668-23.821 4.393-35.651 5.525l9.917-19.052a270.444 270.444 0 0 0 100.998-35.059l10.671 16.007c-13.15 7.437-26.677 13.716-40.582 19.24l34.492 34.493c7.034-13.15 13.124-26.866 18.27-40.771l16.789 9.512c-6.872 16.007-13.743 29.723-20.777 41.742l-7.06-3.234 36.38 36.379-13.313 13.339-33.145-33.145-25.923 25.896 29.345 29.373-12.961 12.934-29.373-29.345-25.708 25.734 29.373 29.346-12.773 12.773-29.373-29.373-28.376 28.403 35.248 35.247-13.15 13.15-82.702-82.701z m152.792-84.965l-33.9-33.927-25.923 25.924 33.927 33.9 25.896-25.897z m-97.172-32.768L571.23 218.22a353.63 353.63 0 0 1-25.734-9.701l-55.054 55.026c-10.671 10.671-21.908 10.483-33.145-0.781l-17.543-17.516 10.483-16.195c4.77 5.901 9.7 11.614 14.659 16.572 5.147 5.12 10.294 5.336 15.252 0.378l45.919-45.919c-10.483-5.147-21.154-10.482-31.448-16.195l10.294-17.139c11.426 7.222 23.255 13.717 35.058 19.402l43.844-43.816-24.388-24.387 13.34-13.34 24.387 24.388L632.4 93.75l13.905 13.905-35.247 35.274 19.24 19.24-13.339 13.34-19.24-19.241-38.508 38.48c8.785 3.423 17.354 6.657 25.923 9.54z m201.405 72.219l43.25 43.25 13.743-13.743 14.094 14.12-13.743 13.717 50.31 50.31 13.744-13.743 14.093 14.12-13.743 13.717 43.277 43.25-12.584 12.585-43.25-43.25-13.905 13.904-14.094-14.12 13.905-13.905-50.31-50.284-13.744 13.717-14.066-14.12 13.716-13.717-43.25-43.25 12.557-12.585z m-36.756 41.714l53.733 53.733c7.222-2.667 14.093-5.335 20.75-8.192l11.048 15.63c-5.713 2.668-11.426 4.958-16.95 7.437l92.968 92.969-12.557 12.584-99.275-99.274a245.76 245.76 0 0 1-48.963 8.192l-80.788 80.788-13.15-13.15 67.449-67.45a340.022 340.022 0 0 1-46.673-5.928l2.452-19.59c37.538 7.814 72.22 8.192 103.855 1.347L737.2 330.833l12.585-12.585z m52.574 163.113c11.048 2.668 24.01 5.335 39.262 8.38l-62.706-62.68 12.584-12.584 82.136 82.136-9.917 9.89a999.478 999.478 0 0 1-51.47-7.626l-7.976 8.003 41.903 41.93-12.934 12.935-41.93-41.903-25.735 25.734c-10.267 10.294-20.561 10.294-30.666 0.19l-22.286-22.286 9.324-17.355c8.192 9.351 14.875 16.762 19.833 21.72 4.581 4.581 9.324 4.77 13.905 0.189l21.908-21.909-52.601-52.6 12.962-12.936 52.6 52.575 11.804-11.803z" fill="#FFFFFF" p-id="6401"></path></svg>